<svg width="11" height="17" viewBox="0 0 11 17" fill="none" xmlns="http://www.w3.org/2000/svg">
<path d="M10.0996 8.35714C10.0996 8.22321 10.0326 8.07254 9.9322 7.9721L2.13086 0.170758C2.03041 0.0703125 1.87974 0.00334668 1.74581 0.00334668C1.61189 0.00334668 1.46122 0.0703125 1.36077 0.170758L0.523717 1.00781C0.42327 1.10826 0.356306 1.25893 0.356306 1.39286C0.356306 1.52678 0.42327 1.67745 0.523717 1.7779L7.10296 8.35714L0.523717 14.9364C0.42327 15.0368 0.356306 15.1875 0.356306 15.3214C0.356306 15.4721 0.42327 15.606 0.523717 15.7065L1.36077 16.5435C1.46122 16.644 1.61189 16.7109 1.74581 16.7109C1.87974 16.7109 2.03041 16.644 2.13086 16.5435L9.9322 8.74219C10.0326 8.64174 10.0996 8.49107 10.0996 8.35714Z" fill="#ffffff"/>
</svg>
