<svg width="11" height="17" viewBox="0 0 11 17" fill="none" xmlns="http://www.w3.org/2000/svg">
<path d="M10.6353 1.39286C10.6353 1.24219 10.5684 1.10826 10.4679 1.00781L9.63086 0.170758C9.53041 0.0703125 9.37974 0.00334668 9.24581 0.00334668C9.11189 0.00334668 8.96122 0.0703125 8.86077 0.170758L1.05943 7.9721C0.958984 8.07254 0.89202 8.22321 0.89202 8.35714C0.89202 8.49107 0.958984 8.64174 1.05943 8.74219L8.86077 16.5435C8.96122 16.644 9.11189 16.7109 9.24581 16.7109C9.37974 16.7109 9.53041 16.644 9.63086 16.5435L10.4679 15.7065C10.5684 15.606 10.6353 15.4554 10.6353 15.3214C10.6353 15.1875 10.5684 15.0368 10.4679 14.9364L3.88867 8.35714L10.4679 1.7779C10.5684 1.67745 10.6353 1.52678 10.6353 1.39286Z" fill="#2F1893"/>
</svg>
